<?xml version="1.0" encoding="UTF-8"?>
<svg width="300" height="300" fill="none" viewBox="-10 -10 320 320" xmlns="http://www.w3.org/2000/svg">
<defs>
<linearGradient id="b" y2="1">
<stop stop-color="#00ff64" stop-opacity="0" offset="0"/>
<stop stop-color="#00ff64" stop-opacity=".05" offset="1"/>
</linearGradient>
<linearGradient id="a" x2="0" y2="1">
<stop stop-color="#00ff64" stop-opacity=".05" offset="0"/>
<stop stop-color="#00ff64" stop-opacity=".2" offset="1"/>
</linearGradient>
<linearGradient id="d" x1="1" x2="0" y2="1">
<stop stop-color="#00ff64" stop-opacity=".2" offset="0"/>
<stop stop-color="#00ff64" stop-opacity=".4" offset="1"/>
</linearGradient>
<linearGradient id="e" x1="1" x2="0" y1="1">
<stop stop-color="#00ff64" stop-opacity=".4" offset="0"/>
<stop stop-color="#00ff64" stop-opacity=".6" offset="1"/>
</linearGradient>
<linearGradient id="f" x2="0" y1="1">
<stop stop-color="#00ff64" stop-opacity=".6" offset="0"/>
<stop stop-color="#00ff64" stop-opacity=".8" offset="1"/>
</linearGradient>
<linearGradient id="c" y1="1" y2="1">
<stop stop-color="#00ff64" stop-opacity=".8" offset="0"/>
<stop stop-color="#00ff64" offset="1"/>
</linearGradient>
</defs>
<g transform="translate(150,150)" fill="none" stroke-width="8">
<path d="m0-150a150 150 0 0 1 129.75 75" stroke="url(#b)">
<animateTransform additive="sum" attributeName="transform" attributeType="xml" dur="1.5s" from="0" repeatCount="indefinite" to="360" type="rotate"/>
</path>
<path d="m129.9-75a150 150 0 0 1 0 150" stroke="url(#a)">
<animateTransform additive="sum" attributeName="transform" attributeType="xml" dur="1.5s" from="0" repeatCount="indefinite" to="360" type="rotate"/>
</path>
<path d="M 129.9,75 A 150,150 0 0,1 0,150" stroke="url(#d)">
<animateTransform additive="sum" attributeName="transform" attributeType="xml" dur="1.5s" from="0" repeatCount="indefinite" to="360" type="rotate"/>
</path>
<path d="m0 150a150 150 0 0 1 -129.9 -75" stroke="url(#e)">
<animateTransform additive="sum" attributeName="transform" attributeType="xml" dur="1.5s" from="0" repeatCount="indefinite" to="360" type="rotate"/>
</path>
<path d="m-129.9 75a150 150 0 0 1 0 -150" stroke="url(#f)">
<animateTransform additive="sum" attributeName="transform" attributeType="xml" dur="1.5s" from="0" repeatCount="indefinite" to="360" type="rotate"/>
</path>
<path d="m-129.9-75a150 150 0 0 1 129.9 -75" stroke="url(#c)">
<animateTransform additive="sum" attributeName="transform" attributeType="xml" dur="1.5s" from="0" repeatCount="indefinite" to="360" type="rotate"/>
</path>
</g>
<path d="m107.44 128.99h-4.39v8.09h4.39v-8.09z" fill="#9C9EA0">
<animateTransform attributeName="transform" attributeType="XML" dur="0.5s" repeatCount="indefinite" type="translate" values="0,-4;0,0;0,-4"/>
</path>
<path d="m143.21 182.65v0.68c4e-3 4.128-1.302 8.151-3.73 11.49h22.9c-1.504-2.624-2.294-5.596-2.29-8.62-4e-3 -1.19 0.12-2.377 0.37-3.54h-17.25v-0.01z" fill="#9C9EA0">
<animateTransform attributeName="transform" attributeType="XML" dur="0.5s" repeatCount="indefinite" type="translate" values="0,-4;0,0;0,-4"/>
</path>
<path d="m100 171.52v23.29h7.79c-2.469-3.39-3.782-7.486-3.744-11.68s1.424-8.265 3.954-11.61h-8z" fill="#9C9EA0">
<animateTransform attributeName="transform" attributeType="XML" dur="0.5s" repeatCount="indefinite" type="translate" values="0,-4;0,0;0,-4"/>
</path>
<path d="m118.86 134.49l-8.72 7.3v27.36c2.415-2.304 5.379-3.951 8.61-4.787 3.231-0.835 6.623-0.83 9.851 0.015 3.229 0.845 6.188 2.501 8.596 4.812 2.409 2.311 4.186 5.199 5.163 8.39h20c1.898-3.331 4.845-5.941 8.38-7.423 3.536-1.482 7.462-1.754 11.169-0.773 3.706 0.982 6.983 3.161 9.322 6.199 2.339 3.037 3.608 6.763 3.609 10.597v1c1.27-0.18 2.438-0.795 3.306-1.739 0.867-0.945 1.381-2.161 1.454-3.441 0 0 3-32.4-7.42-41.17-1.48-1.25-4.09-2.08-6-2.84-0.729 0.238-1.47 0.438-2.22 0.6-1.3 0.166-2.61 0.233-3.92 0.2-0.29 0-1 1-56.47-3.71l-4.7-0.4-0.01-0.19z" fill="#9C9EA0">
<animateTransform attributeName="transform" attributeType="XML" dur="0.5s" repeatCount="indefinite" type="translate" values="0,-4;0,0;0,-4"/>
</path>
<path d="m111.83 126.62v2.36h-2.37v7.03l7.4-6.49 0.03-1.24v-3.69h-0.06v-17.52l-4.63-2.06-8.75 20.59 2.07 1.03h2.57l3.74-0.01z" fill="#9C9EA0">
<animateTransform attributeName="transform" attributeType="XML" dur="0.5s" repeatCount="indefinite" type="translate" values="0,-4;0,0;0,-4"/>
</path>
<path d="m185.41 118.99c-2.045-2.045-4.309-3.859-6.75-5.41-3-2.09-15.87-8.45-23.63-9.29s-21.27-1.29-21.27-1.29l-9.1 3.23-0.35 23.11s54.28 4.71 55 4.71 5.06-0.67 5.74-1.5 3.71-5.61 4-7.7-2.62-4.61-3.64-5.86zm-2.93 10.07h-10v-5h10v5z" fill="#9C9EA0">
<animateTransform attributeName="transform" attributeType="XML" dur="0.5s" repeatCount="indefinite" type="translate" values="0,-4;0,0;0,-4"/>
</path>
<g clip-path="url(#clip0)">
<path d="m123.49 171c2.471 0 4.886 0.733 6.94 2.106 2.054 1.372 3.655 3.324 4.6 5.607 0.945 2.282 1.192 4.794 0.709 7.217-0.482 2.423-1.673 4.649-3.421 6.395-1.748 1.747-3.974 2.935-6.397 3.416-2.424 0.481-4.936 0.232-7.218-0.715-2.282-0.946-4.232-2.549-5.603-4.604s-2.102-4.471-2.1-6.942c3e-3 -3.311 1.32-6.485 3.662-8.825s5.517-3.655 8.828-3.655zm53.85 5.4c1.978 0 3.911 0.586 5.556 1.685 1.644 1.099 2.926 2.661 3.683 4.488s0.955 3.838 0.569 5.778-1.338 3.722-2.737 5.12c-1.398 1.399-3.18 2.351-5.12 2.737s-3.951 0.188-5.778-0.569-3.389-2.039-4.488-3.683c-1.099-1.645-1.685-3.578-1.685-5.556 0-2.652 1.054-5.196 2.929-7.071s4.419-2.929 7.071-2.929z" fill="#00ff64"/>
<path d="m123.49 192.49c4.971 0 9-4.029 9-9s-4.029-9-9-9-9 4.029-9 9 4.029 9 9 9z" fill="#E4E5E6"/>
<path d="m177.33 193.36c3.866 0 7-3.134 7-7s-3.134-7-7-7-7 3.134-7 7 3.134 7 7 7z" fill="#E4E5E6"/>
</g>
</svg>
